<svg width="19" height="20" viewBox="0 0 19 20" fill="none" xmlns="http://www.w3.org/2000/svg">
<path d="M5.83332 18.3333V9.16666M1.66666 10.8333V16.6667C1.66666 17.5871 2.41285 18.3333 3.33332 18.3333H14.5219C15.7558 18.3333 16.8052 17.433 16.9928 16.2135L17.8902 10.3801C18.1232 8.86574 16.9515 7.49999 15.4193 7.49999H12.5C12.0398 7.49999 11.6667 7.12689 11.6667 6.66666V3.72152C11.6667 2.58665 10.7467 1.66666 9.61179 1.66666C9.3411 1.66666 9.09581 1.82607 8.98587 2.07343L6.05327 8.67177C5.91952 8.97271 5.62109 9.16666 5.29176 9.16666H3.33332C2.41285 9.16666 1.66666 9.91285 1.66666 10.8333Z" stroke="#344054" stroke-width="1.66667" stroke-linecap="round" stroke-linejoin="round"/>
</svg>
